# xmcd
#
# Track frame offsets: 
#        150
#        16817
#        32200
#        47605
#        63192
#        77437
#        93715
#        112057
#        128237
#        145455
#
# Disc length: 2170 seconds
#
# Revision: 0
# Processed by: cddbd v1.4PL0 Copyright (c) Steve Scherf et al.
# Submitted via: ExactAudioCopy v0.90b3
#
DISCID=8308780a
DTITLE=Charly McClain - Still I Stay
DYEAR=1900
DGENRE=Country
TTITLE0=Paradise Avenue
TTITLE1=Don't Touch Me There
TTITLE2=And Then Some
TTITLE3=Old Flame, New Fire
TTITLE4=Blue (For Wayne)
TTITLE5=No.1 In Your Eyes
TTITLE6=Still I Stay
TTITLE7=I Know The Way By Heart
TTITLE8=What Makes Love Go 'Round And 'Round
TTITLE9=If You Didn't Need Me
EXTD=
EXTT0=
EXTT1=
EXTT2=
EXTT3=
EXTT4=
EXTT5=
EXTT6=
EXTT7=
EXTT8=
EXTT9=
PLAYORDER=
